<svg xmlns="http://www.w3.org/2000/svg" xmlns:xlink="http://www.w3.org/1999/xlink" viewBox="0 0 602.99 672.82"><defs><style>.cls-1,.cls-11,.cls-14,.cls-8,.cls-9{fill:none;}.cls-2{fill:#3f3a3b;}.cls-3{fill:#f48ba9;}.cls-4{fill:#ffe6e6;}.cls-5{fill:#fff;}.cls-6{fill:#dcc6ea;}.cls-7{opacity:0.2;}.cls-10,.cls-11,.cls-14,.cls-8,.cls-9{stroke:#1e1e1e;stroke-linecap:round;stroke-linejoin:round;}.cls-8{stroke-width:3px;}.cls-10,.cls-9{stroke-width:5px;}.cls-10,.cls-12{fill:#1e1e1e;}.cls-11{stroke-width:3.73px;}.cls-13{clip-path:url(#clip-path);}.cls-14{stroke-width:8px;}</style><clipPath id="clip-path" transform="translate(-98.5 -82)"><path class="cls-1" d="M389.87,121.3a52.59,52.59,0,0,0,1.21,10.24,157.46,157.46,0,0,1,2.25,32.08,2.17,2.17,0,0,0,.48,1.78c.57.49,1.44.24,2.16,0a14.61,14.61,0,0,1,11.78,1.6l1.14-29.16c.29-7.53,2.28-21.65-3.87-27.49C397.82,103.53,390,114.56,389.87,121.3Z"/></clipPath></defs><title>Machina</title><g id="COLOR"><path class="cls-2" d="M210.78,391a73.52,73.52,0,0,1-23,.07c-7.46-1.36-15.19-5.53-19.41-11.83-16.34-.68-31.27-14-33.8-30.17-11.75-6-22.07-18.89-28.29-30.54A54.78,54.78,0,0,1,101,300.34c8.61-9.65,21.87-18.21,36.7-6.45a13.84,13.84,0,0,1,7.76-7.43,28.41,28.41,0,0,1,10.82-1.8c4.86,0,10.66,1.47,14,5,14.71-10.79,36.57-14.6,54.4-10.7" transform="translate(-98.5 -82)"/><path class="cls-2" d="M589.22,391a73.52,73.52,0,0,0,23,.07c7.46-1.36,15.19-5.53,19.41-11.83,16.34-.68,31.27-14,33.8-30.17,11.75-6,22.07-18.89,28.29-30.54A54.78,54.78,0,0,0,699,300.34c-8.61-9.65-21.87-18.21-36.7-6.45a13.84,13.84,0,0,0-7.76-7.43,28.41,28.41,0,0,0-10.82-1.8c-4.86,0-10.66,1.47-14,5-14.71-10.79-36.57-14.6-54.4-10.7" transform="translate(-98.5 -82)"/><path class="cls-3" d="M400,191.83c-30.38-.48-61.9.95-91,10.5-31.09,10.21-55.37,27.38-72.67,54.67-8.51,13.42-18,34.4-21.37,50-6.48,30.08-8.65,64.61-2.29,94.83,9.53,45.28,59.5,67.91,101.21,73.93a690.45,690.45,0,0,0,85,6.88c29.35.55,58.14-2.69,87.21-6.88,41.71-6,91.67-28.65,101.21-73.93,6.36-30.22,4.19-64.75-2.29-94.83-3.36-15.58-12.86-36.56-21.37-50-17.3-27.29-41.58-44.46-72.67-54.67-29.1-9.55-60.61-11-91-10.5" transform="translate(-98.5 -82)"/><path class="cls-4" d="M480.4,441.69c25.74-7.68,51-23.85,67.15-45.35.38-39-6.42-80.11-16.34-117.86a434.49,434.49,0,0,0-42.58-14.2,340.62,340.62,0,0,0-107.92-12.46c-38.53,1.87-76.19,12.62-111.92,26.66-9.93,37.75-16.72,78.83-16.34,117.86,16.12,21.49,41.41,37.67,67.15,45.35C370.24,456.8,429.83,456.78,480.4,441.69Z" transform="translate(-98.5 -82)"/><path class="cls-2" d="M427.67,192.09c-1.73-14-11.25-26.7-27.67-27.21-16.42.51-25.94,13.19-27.67,27.21" transform="translate(-98.5 -82)"/><path class="cls-5" d="M368.08,402.36q46.51-.06,92.86-4.68L461,378a4.16,4.16,0,0,0-.7-2.86c-.86-1-2.36-.9-3.64-.77a1094.14,1094.14,0,0,1-113.19,5.27,1.95,1.95,0,0,0-2.49,2.29l0,15.39a3.08,3.08,0,0,0,.63,2.29C345.45,403.26,363.27,402.36,368.08,402.36Z" transform="translate(-98.5 -82)"/><circle class="cls-6" cx="301.15" cy="23.5" r="7.55"/><path class="cls-3" d="M291.17,472.57s-48.7,21.92-54.33,25.93,2,1.85,7.88,4.5,11.29,5.35,12.79,11.67.57,5.08.57,5.08l31.75-14.29,4.85-32.89Z" transform="translate(-98.5 -82)"/><path class="cls-3" d="M230.1,534.85s10.18,2,16.65-1.57,11.33-11.15,11.33-11.15l10.6,7.36,15.87,11.92s-11.21.46-14,8.19a57.47,57.47,0,0,0-3.31,13.3L246,550.41Z" transform="translate(-98.5 -82)"/><path class="cls-2" d="M232.83,502.17a22.7,22.7,0,0,0-9.17,6.18c-1.54,1.63-3.57,3.23-4.34,5.36-1.89,5.27.42,10.71,2.59,15.46,1.48,3.24,3.35,4.38,6.88,5,4.21.72,9,1.65,13.23,1.11,7.79-1,14.16-7.83,15.13-15.48.57-4.5-1.76-11.51-5.94-13.81A33.56,33.56,0,0,0,232.83,502.17Z" transform="translate(-98.5 -82)"/><path class="cls-3" d="M294.68,472.57l-10.14,68.84s-4.82,31.11-3.84,38.75,5.4,40.82,17.21,48.64,27.68,19.75,65.72,21.89,63.57,2.66,92.62-3.77,42.79-11.57,49.94-24.69,11.51-16.83,12-31.36.12-24.69.12-24.69l-4.47-36-8.6-57.62S438.33,484.83,400,483.33,294.68,472.57,294.68,472.57Z" transform="translate(-98.5 -82)"/><path class="cls-3" d="M507.58,473.08s34,14.76,45.95,20.51a126.06,126.06,0,0,1,19.59,11.5s-14-5.4-20.06-1.39a39.29,39.29,0,0,0-9.66,9.31L541,519.75l-30.83-14.29Z" transform="translate(-98.5 -82)"/><path class="cls-3" d="M516.38,540.34l24-17.56s7.62,9.62,14.24,11,16.42.51,16.42.51l-8.4,9.23-28.77,20.75-3.25-11.75-7.75-9Z" transform="translate(-98.5 -82)"/><path class="cls-6" d="M544.18,526" transform="translate(-98.5 -82)"/><path class="cls-2" d="M561.83,503.33c-5.61,0-12.57.49-16.67,4.83-3.31,3.5-4.11,10.75-2.83,15.21.84,2.93,1.55,5.2,4.16,7a19.55,19.55,0,0,0,8.68,3.31c3.94.46,7.82,1.07,11.82.79,2.7-.19,5.19-.44,7.51-1.91,2.85-1.81,3.78-4.16,4.83-7.24,1.45-4.27,2.17-9,0-13.08-2.37-4.5-8.7-7.27-13.17-9.07" transform="translate(-98.5 -82)"/><path class="cls-3" d="M314.65,640.92s.74,19.73,1.1,22.42a9.49,9.49,0,0,0,1.25,4s45.83,9.31,90.17,7.93,49-4,49-4L484.5,665s1.66-11.52,1.54-14.44-3-9.64-3-9.64a222.4,222.4,0,0,1-69.33,11.59C375,652.67,341.17,648,333,646S314.65,640.92,314.65,640.92Z" transform="translate(-98.5 -82)"/><path class="cls-2" d="M320.68,667.29s1.31,25.78,8.16,36.39,18,27.72,35,33.05S384,743,396,743.4s33.68-1.6,48.42-13.41,19.35-19.58,19.35-19.58,9.53-14.12,10-22,2.77-21.11,2.77-21.11-38.5,10.42-81.33,8.07-65.33-5.69-65.33-5.69Z" transform="translate(-98.5 -82)"/><path class="cls-2" d="M280,542.75c-5.34,3.75-11.66,7-12,14.44-.36,7.86.37,15.55,4.85,22.15,1.82,2.68,4.25,5,7.54,5.42,1.42-1.58,1-5.09,1.11-7.18.19-4.16.18-8.4.28-12.54,8.9-.47,18.15-1.71,26.45-4.58.27-4.21-.78-8.52-1-12.73-.12-2.32.28-3.71-1.76-4.75-2.88-1.47-9-1.59-12.12-1.86s-6,.53-9.11.64" transform="translate(-98.5 -82)"/><path class="cls-2" d="M519.5,542c-4-1.77-10.32-.75-14.76-.75-3.42,0-8.74.14-11.5,2.56-2.11,1.85-.81,4.21-.49,6.79.37,3,.21,6.85,1.55,9.64.68,1.42-.2,1.21,1.37,1.76,1.4.49,4.61-.25,6.21-.25a74.34,74.34,0,0,1,12.81,1.18c4.68.82,3.88,4.66,4.62,9,.58,3.4-.42,9.38,1.48,12.22,3.25-3,7.22-6,9.21-10.07,2.07-4.24,2.43-9.32,2.25-14C531.95,552.59,526.82,545.65,519.5,542Z" transform="translate(-98.5 -82)"/><path class="cls-4" d="M340.75,504.25c-5-3.12-9.8,2.21-8.76,7.25a6.09,6.09,0,0,0,9.11,3.66C344.8,512.6,343.57,506.6,340.75,504.25Z" transform="translate(-98.5 -82)"/><path class="cls-4" d="M362.25,504.75c.4-1.88-5.47.19-6.51,1.5-1.71,2.15-1.75,6.54.11,8.41,2.78,2.8,8.51,2.1,10.42-1.42C368,510,366.75,505.89,362.25,504.75Z" transform="translate(-98.5 -82)"/><path class="cls-4" d="M441.25,505c-1.2-3.54-10.57.24-8.76,5.15,1.17,3.16,5.28,4.77,8.39,3.87C445.85,512.55,444.21,507.85,441.25,505Z" transform="translate(-98.5 -82)"/><path class="cls-4" d="M463,503.25c-4.47-.44-11.42,5-6.64,9.44,2,1.86,6.57,1.71,8.39-.18C466.89,510.3,466.47,503.39,463,503.25Z" transform="translate(-98.5 -82)"/><path class="cls-2" d="M314.93,522.78S313,555.92,312,565.08s.75,29.64.75,29.64S360,606,391.25,605s66.25-2.82,77.75-5.41,19.06-4.87,19.06-4.87l-1.53-46.29L485,522.78S374,524,371.5,523.5,314.93,522.78,314.93,522.78Z" transform="translate(-98.5 -82)"/><circle class="cls-5" cx="251.49" cy="480.25" r="29.35"/><circle class="cls-5" cx="352.17" cy="480.25" r="29.35"/></g><g id="SHADOWS"><path class="cls-7" d="M380.33,173.67c3.2-2.45,26.6-19.29,24.57-4.78-11.49,3.11-14.89,11.25-6.77,20-8.75.52-19.2,4-27.71,2.68a40.33,40.33,0,0,1,9.25-17.91" transform="translate(-98.5 -82)"/><path class="cls-7" d="M408.33,192.33c-14.12,6.32-45.57,29.48-41.34,48.34,1,4.43,5.11,9.77,8.42,13-1.44-1.41-24.88,9.07-28.22,10.35-10.9,4.17-22.08,7.91-32.22,13.8-15.07,8.75-31.25,16.32-36.8,34-3.24,10.32-6.4,21.13-6.52,31.92s-3.9,25.14.82,34.74C286.39,406.84,314.23,427,343.67,437a279.94,279.94,0,0,0,44,10.58c7.87,1.27,17.69-.11,20.62,8.59-1.37-4.07-17.61,8-16.91,14.76.84,8.07,9.78,12.4,16.92,14.19-7.73,4.4-16.9,7.72-22.62,15.35-3.25,4.33-13.14,20-10.77,25-6,3.9-14.43,5.15-20.53,6.67,5.16,1.31,8.22,3.91,11.76,7.53-6.42.06-12.51-2.45-18.44,1.56a26,26,0,0,1,11.86,3.41c-4.74,1.5-17.51-.11-18.85,7,2.59.43,4.3-1.68,6.63-2.22a18.34,18.34,0,0,1,5,0c-7,3.44-12.79,7.17-10.71,16.27,1.64,7.19,7.44,12.06,14.64,7.7-3.9,2.68-7.72,2.71-12.26,2.2-2.93-.33-7.67-1.69-6,3.19,2.76,7.93,17.88,6.84,23.39,3.35-2.38,3.38-6.8,3.9-10.06,5.88,1.17,4.17,12,.7,14.3-1-2.65,1.89-22.14,8.86-9.41,13.5,3.88,1.41,8.11,2.11,12,3.46,11.23,3.87,23.93.64,35.51-.37,7.56-.66,14.94-1,22.58-1.14a75.7,75.7,0,0,0-18.56,10.28c-7.6,5.72-19.23,15.83-19.87,25.72-.58,8.88,3.68,15.7,13.41,15.88C385.1,654,384.65,669,395.67,675c1.95,6.85,13.18,2.71,18.62,4.15-7.83,5.38-23.09,1.94-30.29,8.48-10.7,9.73,9.29,19.25,14.3,24.57-2.83.31-13.47,1.38-14.6,4.44-1.72,4.65,8,9,11.34,10,12,3.71,23.69-.9,35.08-2.39-4.6,2.73-27.4,9.29-17.85,17.86-19.41,9.49-48-6.49-64.88-15.15-20.16-10.36-26.6-39.22-27.82-59.93-11.27-.23-2.25-20.82-5.23-27.06-1.68-3.51-6.31-3.36-10-5.54-4.32-2.54-6.18-5.36-9.3-9.45-4.58-6-9.68-12.51-11.45-19.95-1.64-6.89-1.5-14.07-2.18-21.08-.51-5.23-4.26-14.14-1.07-19,4.17-6.37,18.13-.1,24.68-2.24,5.18-1.69,3.22-5.6,3.49-10.75.31-6-.69-7-7-9.14-4.76-1.59-11.92-3.18-16.93-2.05-.53-8.29.37-15.58,1.54-23.81.71-5,2-9.84,2.64-14.75,1.35-9.7,7.08-21,6.17-30.66-7.76-2.65-16-3.56-23.55-6.46a56.67,56.67,0,0,1-10.89-6c-10.31-6.74-19.5-9.18-27.34-19.74-4.5-6.06-9.36-11.13-13-17.9a63.63,63.63,0,0,1-5.56-13.24c-5.64-20.14-5.63-42.47-4.24-63.17,1.43-21.4,5.51-42.63,14.83-62.08,8.48-17.69,15.8-38.64,32.36-51,5.11-3.81,10.58-6.7,15.49-10.8,5.13-4.28,8.75-8.83,14.92-11.6,9.95-4.46,21.38-9.46,32.29-10.5,14.1-1.34,27.21-6.12,41.53-6.11,15.45,0,30.69-1.5,46.28-1.5" transform="translate(-98.5 -82)"/><path class="cls-7" d="M214.5,300c-2.57,1.75-2.15,4.33-3.11,7-1.36,3.76-3.6,7.27-5.15,11a113.3,113.3,0,0,1-12.35,22c-2.46,3.5-9,14.14-14.64,12-5.82-2.22-7.22-19.42-7.78-24.73-.67-6.41-.62-12.73-1.09-19.22-2.2,6.46-8.42,43.45-19.75,36.88-7.86-4.56-7-19.92-8.51-27.5-1.12-5.77-1.78-12.7-4.75-17.86-4.1,3.89-2.44,18.75-2.9,24.36-.63,7.56-1.71,5.36-7.92,2.11-7.12-3.72-11.78-9.65-15.51-16.9-2.4-4.65-1.34-10-1.61-15-2.11.06-7.1,3.37-8.3,5.52-2,3.65.33,8.23,1.4,11.79,2,6.63,2.71,10.2,7.47,15.1,3.61,3.71,6.07,6.92,10.45,9.72a107.12,107.12,0,0,1,11,8.54c5,4.2,2.5,4.08,3.54,10.31,1.34,8,9.37,14.79,15.87,18.7,5.56,3.34,11.65,4.36,17.17,6.71,5.91,2.51,10.37,8.44,17,10.07a102.09,102.09,0,0,0,24.35,2.52c.9-15.61-.4-31.4-.45-47a162.48,162.48,0,0,1,1.86-22.9c.71-5.15,3.05-10.52,3.14-15.63" transform="translate(-98.5 -82)"/><path class="cls-7" d="M355.5,380.5c4.61,2.23,14.85,0,20.5,0h14.87c-5.28.3-10.79,1.69-15.93,3-3.79,1-12.39,1.63-15.19,4.25-6.35,5.92,5.57,13.22,11.21,14.37-4.09,1.59-25.54,2.72-29.11-1.58-1.64-2-1.48-12.73-1.38-15.56.17-4.57,1-7.23,6-6.48" transform="translate(-98.5 -82)"/><path class="cls-7" d="M445.5,378c6,2,8.41,1.41,8.5,9.14.07,6.18-2.46,9.49-7,13.26,4.38.59,9.71-.22,13.88-1,.4-7.54.92-15.28.49-22.84C458.43,375.31,454.29,376,445.5,378Z" transform="translate(-98.5 -82)"/><path class="cls-7" d="M305.5,311c-4.27,1-7.27,3.35-11.92,3.07.33,2.08,2.09,3.58,3.37,5.33-1.87-.21-2.76.55-4,1.58,7.24,5.73.9,20.4,3.17,28.52,2.62,9.35,17.34,11.83,21.51,2.12,1.82-4.22.24-3.66-1.83-7.92-3.69-7.58-5.21-17.3-4.79-25.7" transform="translate(-98.5 -82)"/><path class="cls-7" d="M486.5,313c-7.11,7.67-6.11,21.83-5.5,32,.6,10,13.93,19.8,21,8.86,2.91-4.52.26-6.4-1.29-10.61-3.25-8.79.83-21.44-6.19-28.75" transform="translate(-98.5 -82)"/><path class="cls-7" d="M586.5,301c-.22,8.57,7.17,15.49,9.25,23.48,1.79,6.89,3.29,13,7.75,18.91,2.81,3.72,8.71,11.3,14,10.62,6.9-.88,9.07-12.88,10.52-18.22,2-7.49,2-15.29,3.59-22.64,1.46,6.19,4.21,31.56,14.54,28.28,10-3.19,12.92-26.55,17.73-34.89,0,9.52,5.54,17.55,15.44,11.89,8.34-4.76,11.17-15.61,20.6-18.88,1.79,11.27-9.58,23.3-15.84,31.35C679.34,337,673,342.09,668,347c-1.75,1.71-2.29,4-3.78,6.52-5.85,10-10.51,19.25-21.4,25-3.29,1.74-7.41.45-9.81,1.57-3.39,1.58-4.73,5.64-8.25,7.4a46.42,46.42,0,0,1-12.81,3.66c-6.38,1-18.94,5.74-24.47.92,4.16-5.8,2.94-13.08,3-19.94.08-7.66.65-15.1.13-22.77C589.68,335.27,588.68,319.6,586.5,301Z" transform="translate(-98.5 -82)"/><path class="cls-7" d="M588.5,395.5c-5.83,15.88-18.51,29.68-30,41.49-14.86,15.29-35.45,26.92-55.56,34-11.5,4.06-24.07,7.08-35.8,10,15.41,3.92,36.25-6.19,41.34,13.62,0-7.25-1.33-14.32-.92-21.56,5.85.06,10.6-3.88,15.84-6.05,5.47-2.27,10.82-4.35,16.14-7.05,9.13-4.64,17-9.38,24.48-16.49C577.5,430.72,581.56,416.15,588.5,395.5Z" transform="translate(-98.5 -82)"/><path class="cls-7" d="M510,509c-.63,7,1.82,14.23,2,21,.13,5.16-2.38,7.22-5.95,10.37,2.81.23,7.68,1.39,9.35-.49,2.83-3.2-1.2-18.38-2.4-21.91" transform="translate(-98.5 -82)"/><path class="cls-7" d="M507.5,489c4.11,6.9,18.63,10.06,25.81,13,3.63,1.49,7,3.3,10.94,3.5,3.67.19,7.67-1.42,11.07,0-3,.81-2.32,5.06-2.32,8,0,4.8-.17,8.22,5,10.26,4.38,1.74,13.12,1.67,17-1.14,3.27-2.34,2.24-5.17,4.64-8,2,5.55,2.15,12.53-3.34,16-2.08,1.31-4.1,2.78-6.56,3.28a46.89,46.89,0,0,1-10.83.57c-3.28-.16-6.22-.33-9.13,1.48-3.41,2.13-6,5.5-9.09,8s-7.12,4.27-10.21,6.85c1.3-7.63-10.52-8.16-15-10.12,9.6-5.33,21.21-13.69,27.75-22.76-8-2.57-16.17-3.71-24-7.16-2.82-1.24-8.82-3.22-10.21-6.42C507.32,500.61,510.21,496.14,507.5,489Z" transform="translate(-98.5 -82)"/><path class="cls-7" d="M493.5,547c4.49,10.84,23.44,11.1,32.41,16.59.7,4.28,5.72,8.52,4.47,12.28-1.31,3.95-7.67,9.09-11.84,8.55,3.68-6.38,1.81-17.2-4.55-19.41s-14.65-2.88-21.42-3.58C492.32,557.52,490.57,543.9,493.5,547Z" transform="translate(-98.5 -82)"/><path class="cls-7" d="M498,562c3.14,2.85,8.54,2.56,11.75,5.5s3,6.69,3.36,10.5c1,9.6-.75,19.29,0,29,6.34-12.06,7-30.08,6.31-43.88-4-.46-8-.56-11.91-1.16C506.83,561.82,497.38,561.44,498,562Z" transform="translate(-98.5 -82)"/><path class="cls-7" d="M430.5,652.5c11.8,0,23.6.14,35.27-.54,6.64-.39,15-3.28,21.63-1,.61-3.86-.24-8.45-.47-12.37-6.77-1.14-15.75,4.7-22.2,6.42-7.84,2.1-16.76,3.19-24.23,5.5" transform="translate(-98.5 -82)"/><path class="cls-7" d="M348.44,747.83a64.55,64.55,0,0,1-14.29-.22c-3.35-.48-9-1.85-12.09-.51,1.61,7.94,27.17,6.81,33.44,7.4,10.22,1,19.88-.45,30-2,12.77-2,25.71-.49,38.57-.49,13.26,0,26.59-3.18,38.82-7.9-10.3-1.1-21.08,1.58-31.6.54-9-.89-19-2.53-28-2.14-8.73.38-17,2.51-25.75,2.5C367.76,745,358.06,747.06,348.44,747.83Z" transform="translate(-98.5 -82)"/><path class="cls-7" d="M277.5,477c-7.43,3.45-14.8,7.73-22,11.66-4,2.19-8.17,4.14-12.3,6.13-1.83.89-3.51,2.07-5.34,3-.22.11-4.91,2.3-4.26,2.75,5.75,4,14.52,1.54,20.35,6.11,4.13,3.24,4.52,7.51,5.67,12.31,6.62.64,16.92-5.42,22.92-8.3,3.44-1.65,5.92-2.78,7.49-5.88,1.71-3.38,1-7.73,2.17-11.33,1.06-3.13,2.15-3.83,2.34-7.66.22-4.46,1.71-8.78,1.46-13.19C291.51,472.77,281.36,475.21,277.5,477Z" transform="translate(-98.5 -82)"/><path class="cls-7" d="M248,505.5c2.92,1,6.44,5.35,6.42,8.43-6.14,2-14.13-.83-12.42,9.32,1.38,8.24,12.18,8.62,14,.93-7.68,9.24-25.81,16.42-34.07,4.2-9.88-14.61,5.47-24,18.53-26.38" transform="translate(-98.5 -82)"/><path class="cls-7" d="M254,530.5c3,4.6,6,8.5,10.79,11,6,3.13,8.77,1.28,15.06,1.49-3.74.56-8.62,2.58-8.78,6.91,5.87,3.15,12.8.14,18.94,1.83,3,.82,5.2,2.37,8.37,3.13s6.36,1.38,8.87,3.54c-5.11.16-22.35,1.65-25.71,6.39-2.82,4,1.68,13.87-.64,19.16-3.35-1.56-9.13-3.06-10.82-6.89-1.48-3.35-.5-10.65-1.15-14.5-7.86.25-15.25-6.38-20.68-11.55-5.78-5.5-12.28-9-18.15-14.44C234.91,536.44,252.75,536.16,254,530.5Z" transform="translate(-98.5 -82)"/><path class="cls-7" d="M333.25,503c-4.1,1.29-8.49,6.33-6.57,10.75,2.54,5.84,12.26,6.17,14.54.28-2.48.51-4.58,1.42-6.6-.63C332.89,511.64,331.92,506.43,333.25,503Z" transform="translate(-98.5 -82)"/><path class="cls-7" d="M356.25,504c-4.19-.52-5.66,8.32-4.76,11.25,1.75,5.7,13.27,3.22,14.24-2-2.1.38-4.55,1.5-6.82,1C355.28,513.37,353.69,508.3,356.25,504Z" transform="translate(-98.5 -82)"/><path class="cls-7" d="M435,503.75c-5.2-.84-8.28,5-6.44,9.25,2.58,5.91,11.2,5.3,14.1,0C435.29,516,431.38,511.47,435,503.75Z" transform="translate(-98.5 -82)"/><path class="cls-7" d="M457,503.75c-5.27-.79-8.05,6.51-6.19,10.5,3.08,6.59,13.42,4.44,16.16-1.23-2.61.95-6.52,2.58-9.12.58C455.63,511.91,455.06,507.41,457,503.75Z" transform="translate(-98.5 -82)"/><path class="cls-7" d="M424.56,548.5a31.37,31.37,0,0,0-1.19,22.82c2.27,6.59,8.9,11.13,14,15.19,3.23,2.57,9,6,13.38,4.54a32.62,32.62,0,0,0,7.38-4c1.74-1.43,2.13-3.67,3.8-5.16A27.6,27.6,0,0,1,448.35,584c-3.34-.23-9.38-1.7-11.41-4.71-2.57-3.82.08-4.83,3.32-4,4.13,1.1,10,3.34,14,.65-3.41.08-7.42.64-10.24-1.66-2.52-2.05-5.21-7.61-5.34-10.83-.36-9.15,11.86-12.11,18.65-12.56-4.83-6.77-12.76,1.72-17.59,2-1.09-7.64,13.49-10,18.66-9.95-2.42-1.22-6.5-.68-8.35-2.6a55.41,55.41,0,0,1,17.67-3.4c-5.16,0-10.09-2.22-15.21-2.65a34.68,34.68,0,0,0-7.52.36c-2.39.33-3.87,1.59-6.09,2.51-1.81.75-3.61.85-5.38,1.9A23.57,23.57,0,0,0,424.56,548.5Z" transform="translate(-98.5 -82)"/><path class="cls-7" d="M536.49,303c-1.4-6.81.41-17.48-3.83-23.33-3.65-5-14.43-6.77-20-8.29-8.81-2.38-17.62-7.95-27-7.44,3.64,1.33,6.36,4.62,9.58,6.64s6.39,4.92,9.91,6.55,7.18,2.81,10.58,4.69,7.21,3.35,10.12,6c3.18,2.9,3.81,6.33,4.78,10.31,1.52,6.21,2.29,12.94,3.21,19.31.73,5.05,1,10.11,1.52,15.17.49,4.35,1.78,8.45,2,12.94.72,15.92,3.36,32.23-.81,47.92A100,100,0,0,1,532.18,407c-1.4,3.29-4.46,6-5.58,9.21,2.66-2.1,5.53-3.66,7.77-6.32,3.15-3.76,7.31-6.38,9.89-10.67,2-3.26,2-6.32,2.37-10.14.51-4.59-.88-9.11-.38-13.63a76.74,76.74,0,0,0-.11-14.49c-.86-11-2.47-22-3.64-33C541.61,319.57,538.19,311.33,536.49,303Z" transform="translate(-98.5 -82)"/><path class="cls-7" d="M539.5,245.75a28,28,0,0,0-7.71-.71c-.75,3.67,5.43,5.11,3.92,8.72-.61,1.47-2.14,1.12-2.22,3.28-.08,2.33,2.23,3.43,2.72,5.4-5.48,2.39-1.8,4.74-.92,8.79,1.43-1.19.54-3.56,1.63-5s2.95-1.54,4.53-2c.53-2.49-2.62-3.59-2.69-5.58-.09-2.5,3.61-2,5.45-2.43-.56-1.73-4.76-4.57-4.24-6.7C540.37,247.91,544.55,247.49,539.5,245.75Z" transform="translate(-98.5 -82)"/><path class="cls-7" d="M433.33,536.67c-12.72,4.08-19.67,14.26-20.35,27.42A32.31,32.31,0,0,0,418.82,584c4.69,6.69,16,10,23.8,11,8.67,1.09,16.35-2.09,23-6.91-12.61,3.45-31.18,2.93-38.09-10.54C421.1,564.93,424.11,552.11,433.33,536.67Z" transform="translate(-98.5 -82)"/></g><g id="LIGHTS"><path class="cls-5" d="M497.87,204.86c-.66-.24-1.32-.46-2-.65-4.93-1.39-9.76-1.05-14.73-2.65-5.83-1.87-11.37-4.72-17.49-5.58,10.58,7.09,20.6,14.13,31.47,20.63,14.49,8.66,27.5,19.23,41.36,28.93C547.14,253,552.85,260.4,558.11,272c2,4.48,4,9.14,5.95,13.78,6.43,15.56,13.29,32.13,16.87,48.53,2.16,9.9,3.68,19.66,5.15,29.58.68,4.63,1.46,9.54,2.59,14,4.44-13.42,3.36-27.87,2-41.62-.82-8.23-1.09-17.47-3.59-25.4-2.19-6.95-5.57-13.79-8.57-20.47-8.24-18.31-15-36-28.17-51.38-3.58-4.18-7.12-5.52-11.72-8.65-5.36-3.65-9.28-8.63-13.95-13-4.17-3.92-8.81-4.29-14.16-6.47C506.19,209.11,502.24,206.48,497.87,204.86Z" transform="translate(-98.5 -82)"/><path class="cls-5" d="M592.5,276.5c-4.37-.14-11.18.75-13.55,5,4.16,3,12.21,1.57,17.44,2.52,4.87.88,11.64,1.77,16.16,3.93,9.39,4.48,11.57,15.26,17.86,22a73.32,73.32,0,0,0-.4-15.9c-.8-4.77-1.09-3.15-4.29-5.59-4.44-3.4-8.1-6.72-13.49-8.69C608.27,278.34,603.84,278,592.5,276.5Z" transform="translate(-98.5 -82)"/><path class="cls-5" d="M644,284c-2.57.08-11.64,2.53-12,5.49-.54,4.32,8.81,2.37,11.76,2.51,9.81.47,16.32,5.67,19.64,14.85.43-5.21,1.63-14.76-3.13-18.37C656.71,285.79,649.1,285.26,644,284Z" transform="translate(-98.5 -82)"/><path class="cls-5" d="M684,289c-2.93-.92-8.75-1.25-11.75.06-5.25,2.28-5.54,6.32-.25,7.44,8.91,1.89,15.34-.76,23.37,4.42,3.09-4.56-6.3-9.82-8.87-12.42" transform="translate(-98.5 -82)"/><path class="cls-5" d="M444.09,271.41c-3.9-.33-7.34-.46-9.57-.6-8.22-.49-29.18,1.19-20.95,14.41,5.34,8.57,22.77,5.26,31.34,4.14,8.92-1.16,17.58-1.47,26.51-1.94C473.84,275.59,456.58,272.47,444.09,271.41Z" transform="translate(-98.5 -82)"/><path class="cls-5" d="M409.5,166.5c-4.12-1.51-8.13.14-5,3.87,2.46,2.93,6.8,4,9.19,7.4,2.52,3.53,6,14.7,12.22,11.14C426.92,183,418.26,171.12,409.5,166.5Z" transform="translate(-98.5 -82)"/><path class="cls-5" d="M401.5,98.5c-4.27-1.31-7.69-.25-4.5,3.25,1.12,1.22,2.77.15,4,2.25.88,1.51.36,3.77.08,5.42,6.58,1.62,3.72-9.3.92-11.42" transform="translate(-98.5 -82)"/><path class="cls-5" d="M475,523c-3.81-.82-8.11-1.72-12.25-1.5-7.88.42-5.42,3.38.62,5.12,4.58,1.32,10.25,2.64,13.94,5.87s4.78,8.39,7.57,12.46c-1.56-2.28,4-24.19-1.89-24.46" transform="translate(-98.5 -82)"/><path class="cls-5" d="M528,481.5c-2.87-1.64-24.59-13.83-22.41-5.09,9.58,4,18.45,9.82,27.91,14.28,6.85,3.23,18.06,12.52,25.92,11.73.6-4.42-6.65-9.33-10-11.42-2.49-1.54-5.3-2.3-7.78-3.89S537.21,482.82,528,481.5Z" transform="translate(-98.5 -82)"/><path class="cls-5" d="M571.5,502.5c-3.63-.19-8.79-1.69-11.56,1,4.33,4.59,10.45,2.31,13.56,8.79,2.22,4.63,2.29,11.22,3.08,16.13,5.14,0,5.71-7,5.42-10.93C581.56,511.53,577.57,509.73,571.5,502.5Z" transform="translate(-98.5 -82)"/><path class="cls-5" d="M563.21,535.55c-6.89,2.64-15.06,9.36-16.53,16.86,3.53-1.16,7.25-1.76,10.51-3.64s5.66-4.85,8.67-7c.57-.4,9.26-6.16,7.45-6.84C570.24,533.83,566.7,534.21,563.21,535.55Z" transform="translate(-98.5 -82)"/><path class="cls-5" d="M500.58,614.2l-.43-.09c-3.06-.51-8.49,5.78-10.9,7.39s-10.61,4.82-10.75,8c-.32,6.9,10.87-.57,13-2.05S506.86,615.78,500.58,614.2Z" transform="translate(-98.5 -82)"/><path class="cls-5" d="M517.5,543c-1.61-.51-6.22-2.6-6,.5.14,2,5.41,4.06,7,5.13a27.36,27.36,0,0,1,6.52,5.55c2.1,2.78,2.62,6.39,5.24,8.84,2.71-2,.28-9.34-.63-12-1.33-3.86-4.68-5.3-6.62-8.56" transform="translate(-98.5 -82)"/><path class="cls-5" d="M504.17,494c-1.74,5.61-1,12.29-1.19,18.12a119.53,119.53,0,0,0,.95,19.88c.34,2.46.39,6.1,2.41,7,2.62,1.17,6.11.81,8.88,1.16.59-4.08-.29-7.19-1.26-11-1.27-5-1.56-10.51-2.3-15.63A230.56,230.56,0,0,0,506,487.31C506,489.72,504.87,491.75,504.17,494Z" transform="translate(-98.5 -82)"/><path class="cls-5" d="M206,279c-5-1.81-27.76,1.48-27.42,8.91,6.6,2.39,17.33-1.9,24.19-2.93,4-.59,16.38-.82,16.65-5.9a7.06,7.06,0,0,0-2.92-.59" transform="translate(-98.5 -82)"/><path class="cls-5" d="M157.5,285.5c-4-1.3-21.47,1.76-15.39,6,3.28,2.28,10.66-.81,14.39-1a52.44,52.44,0,0,1,10.42.42c.81-3.68-3.27-5.6-6.42-5.42" transform="translate(-98.5 -82)"/><path class="cls-5" d="M124.24,293.44a23.34,23.34,0,0,1,9.47.78c-2.56-5.29-6.81-5.45-12-4.77a35.55,35.55,0,0,0-9.3,2.3c-.68.29-5.7,3.68-5.83,3.64C114.25,297.95,116.94,294.31,124.24,293.44Z" transform="translate(-98.5 -82)"/><path class="cls-5" d="M485,648c-3.87.17-5.08,7.67-6.75,10.75-1.76,3.26-6.4,7.07-6.17,10.67C484.77,671.83,485,657.54,485,648Z" transform="translate(-98.5 -82)"/><path class="cls-5" d="M469.11,703.73c6.43-9.64,10.08-19.68,7.89-33.23-6.54-1.56-9.73,18.79-12.14,23.89-4.33,9.16-12,17.18-18.65,24.78-4.13,4.75-8.46,9.84-12.17,14.73,11.2,1.28,22.3-13.59,28.35-21.13,9.23-11.49,13.6-27.57,13.6-42.26" transform="translate(-98.5 -82)"/></g><g id="DETAILS"><path class="cls-8" d="M590.5,291.5c6.8-1.54,17.16-3.69,23.5,0" transform="translate(-98.5 -82)"/><path class="cls-8" d="M618,297h1" transform="translate(-98.5 -82)"/><path class="cls-8" d="M620,302a1.18,1.18,0,0,0,1-.5" transform="translate(-98.5 -82)"/><path class="cls-8" d="M638,297.5c3.78-1.68,7.42-1.49,11.5-1.5" transform="translate(-98.5 -82)"/><path class="cls-8" d="M671.5,297.5a28.5,28.5,0,0,1,18,2.5" transform="translate(-98.5 -82)"/><path class="cls-8" d="M689,304.5h2.5" transform="translate(-98.5 -82)"/><path class="cls-8" d="M600,384h6" transform="translate(-98.5 -82)"/><path class="cls-8" d="M644.5,367a35,35,0,0,1,3.5-2.5" transform="translate(-98.5 -82)"/><path class="cls-8" d="M676,331a8.92,8.92,0,0,0,2-2" transform="translate(-98.5 -82)"/><path class="cls-8" d="M655.5,297l-1.5,2" transform="translate(-98.5 -82)"/><path class="cls-8" d="M659.5,300a3.52,3.52,0,0,0-2,2.5" transform="translate(-98.5 -82)"/><path class="cls-8" d="M533.5,249.5c.77-.56,1.93-.31,3,.5" transform="translate(-98.5 -82)"/><path class="cls-8" d="M532,256.5c.82,2,3.13,2.53,5,3" transform="translate(-98.5 -82)"/><path class="cls-8" d="M388,174.5c5.68-4.18,12.65-2.82,19-2" transform="translate(-98.5 -82)"/><path class="cls-8" d="M410.5,176.5a3.08,3.08,0,0,1,1.5-1" transform="translate(-98.5 -82)"/><path class="cls-8" d="M413.5,180.5a1.18,1.18,0,0,0,1-.5" transform="translate(-98.5 -82)"/><path class="cls-8" d="M399,103c2.22,0,3.25,1.81,3.5,4" transform="translate(-98.5 -82)"/><path class="cls-8" d="M198,286.5v2" transform="translate(-98.5 -82)"/><path class="cls-8" d="M204.5,285v3.5" transform="translate(-98.5 -82)"/><path class="cls-8" d="M180.5,294.5c-1.42,24.87-7.65,55,1.5,79" transform="translate(-98.5 -82)"/><path class="cls-8" d="M193.5,371a6.51,6.51,0,0,0,.5,4" transform="translate(-98.5 -82)"/><path class="cls-8" d="M198,374.5V377" transform="translate(-98.5 -82)"/><path class="cls-8" d="M145,299c-3.09,11.05-3.5,22-3.5,33.63,0,12.69,4.34,21.23,10.5,31.87" transform="translate(-98.5 -82)"/><path class="cls-8" d="M155,294.5v4" transform="translate(-98.5 -82)"/><path class="cls-8" d="M158.5,295.5v5" transform="translate(-98.5 -82)"/><path class="cls-8" d="M123.5,295a1.81,1.81,0,0,0-.5,2" transform="translate(-98.5 -82)"/><path class="cls-8" d="M127.5,297a4.7,4.7,0,0,1-.5,2" transform="translate(-98.5 -82)"/><path class="cls-8" d="M109.5,302c1,10.22,7.7,25.68,16.5,31.5" transform="translate(-98.5 -82)"/><path class="cls-8" d="M228,408a3.31,3.31,0,0,0,1.5,2.5" transform="translate(-98.5 -82)"/><path class="cls-8" d="M233,403c.37,2.2,1.31,4.65,3,6" transform="translate(-98.5 -82)"/><path class="cls-8" d="M500,500.5h2.5" transform="translate(-98.5 -82)"/><path class="cls-8" d="M499,509a3.28,3.28,0,0,1,2.5.5" transform="translate(-98.5 -82)"/><path class="cls-8" d="M473,653a7.31,7.31,0,0,1,3.5-.5" transform="translate(-98.5 -82)"/><path class="cls-8" d="M472.5,657.5H474" transform="translate(-98.5 -82)"/><path class="cls-8" d="M323,651a17.16,17.16,0,0,0,1.5,7.5" transform="translate(-98.5 -82)"/><path class="cls-8" d="M342.5,665c18.26,3,38.34,3.5,57,3.5" transform="translate(-98.5 -82)"/><path class="cls-8" d="M503,549c1.85-.84,5.06-.5,7.5-.5" transform="translate(-98.5 -82)"/><path class="cls-8" d="M506.5,552.5h3" transform="translate(-98.5 -82)"/><path class="cls-8" d="M288.5,549.5c.54.44,3.37-.69,5.5-.5" transform="translate(-98.5 -82)"/><path class="cls-8" d="M288.5,555H292" transform="translate(-98.5 -82)"/><path class="cls-8" d="M232,510c-5.69,3-9.71,17.24,0,16.5" transform="translate(-98.5 -82)"/><path class="cls-8" d="M238.5,523c-.69.77-.79,1.53,0,2" transform="translate(-98.5 -82)"/><path class="cls-8" d="M242.5,523.5c-.18.56,0,.92.5,1" transform="translate(-98.5 -82)"/><path class="cls-8" d="M261,495c5.84-4.12,16.48-6.89,23.5-7.5" transform="translate(-98.5 -82)"/><path class="cls-8" d="M269.5,499a4.7,4.7,0,0,1,2-.5" transform="translate(-98.5 -82)"/><path class="cls-8" d="M249,540a30.74,30.74,0,0,0,6.5,6" transform="translate(-98.5 -82)"/><path class="cls-8" d="M257.5,540.5l.5.5" transform="translate(-98.5 -82)"/><path class="cls-8" d="M533,491.5a30,30,0,0,0,3.5,1" transform="translate(-98.5 -82)"/><path class="cls-8" d="M566.5,513c2.89,2.32,5.51,7.47,2,10.5" transform="translate(-98.5 -82)"/><path class="cls-8" d="M551,541c-.87.79-1.79,1.72-2.5,2.5" transform="translate(-98.5 -82)"/><path class="cls-8" d="M542.5,546.5A2.78,2.78,0,0,0,541,548" transform="translate(-98.5 -82)"/><path class="cls-8" d="M455,693c-10.79,25.25-32.58,36.51-59,36.5" transform="translate(-98.5 -82)"/><path class="cls-8" d="M480,701c-.55,3.6-3.23,8.75-6,11" transform="translate(-98.5 -82)"/><path class="cls-8" d="M487,705.5a14.73,14.73,0,0,1-1.5,3" transform="translate(-98.5 -82)"/><path class="cls-8" d="M319,710c2.92,4.21,7,12.77,11.5,15" transform="translate(-98.5 -82)"/><path class="cls-8" d="M314.5,719a23.31,23.31,0,0,1,2.5,3" transform="translate(-98.5 -82)"/><path class="cls-8" d="M346.5,739.5H346" transform="translate(-98.5 -82)"/><path class="cls-8" d="M338,738.5h-.5" transform="translate(-98.5 -82)"/><path class="cls-8" d="M461.5,733.5q.06.56-.5.5" transform="translate(-98.5 -82)"/><path class="cls-8" d="M529,210c9.76,5.34,18.91,13.86,25.5,22.5" transform="translate(-98.5 -82)"/><path class="cls-8" d="M546.5,210c1.32,1.08,2.58,2.73,4,4" transform="translate(-98.5 -82)"/><path class="cls-8" d="M382.5,113c-1.21.71-3.07,1.64-4.5,2.5" transform="translate(-98.5 -82)"/><path class="cls-8" d="M381.5,98.5c-1.48-.31-3-.66-4.5-1" transform="translate(-98.5 -82)"/><path class="cls-8" d="M397,87.5v-4" transform="translate(-98.5 -82)"/><path class="cls-8" d="M414,95c.82-.34,1.67-.68,2.5-1" transform="translate(-98.5 -82)"/><path class="cls-8" d="M419.5,113a6.35,6.35,0,0,0,3,1" transform="translate(-98.5 -82)"/><path class="cls-8" d="M142,276.5c6.06-1.94,15.81-6.47,21,0" transform="translate(-98.5 -82)"/><path class="cls-8" d="M148,268.5h5.5" transform="translate(-98.5 -82)"/><path class="cls-8" d="M686,345c4.68-3.91,9.71-10,11-16" transform="translate(-98.5 -82)"/><path class="cls-8" d="M694.5,345c1.64-1,2.81-3,4.5-4" transform="translate(-98.5 -82)"/><path class="cls-8" d="M589,510c1.24,3.72,1,6.76,0,10.5" transform="translate(-98.5 -82)"/><path class="cls-8" d="M594.5,512c.09,1.53.26,3,.5,4.5" transform="translate(-98.5 -82)"/></g><g id="LINEART"><path class="cls-9" d="M400,191.83c-30.38-.48-61.9.95-91,10.5-31.09,10.21-55.37,27.38-72.67,54.67-8.51,13.42-18,34.4-21.37,50-6.48,30.08-8.65,64.61-2.29,94.83,9.53,45.28,59.5,67.91,101.21,73.93a690.45,690.45,0,0,0,85,6.88c29.35.55,58.14-2.69,87.21-6.88,41.71-6,91.67-28.65,101.21-73.93,6.36-30.22,4.19-64.75-2.29-94.83-3.36-15.58-12.86-36.56-21.37-50-17.3-27.29-41.58-44.46-72.67-54.67-29.1-9.55-60.61-11-91-10.5" transform="translate(-98.5 -82)"/><path class="cls-9" d="M224.71,278.94c-17.82-3.9-39.68-.09-54.4,10.7" transform="translate(-98.5 -82)"/><path class="cls-9" d="M170.31,289.64c-3.37-3.51-9.17-5-14-5a28.41,28.41,0,0,0-10.82,1.8,13.84,13.84,0,0,0-7.76,7.43" transform="translate(-98.5 -82)"/><path class="cls-9" d="M137.7,293.89c-14.83-11.76-28.09-3.21-36.7,6.45" transform="translate(-98.5 -82)"/><path class="cls-9" d="M101,300.34a54.78,54.78,0,0,0,5.26,18.19c6.22,11.65,16.54,24.52,28.29,30.54" transform="translate(-98.5 -82)"/><path class="cls-9" d="M134.55,349.07c2.53,16.16,17.45,29.49,33.8,30.17" transform="translate(-98.5 -82)"/><path class="cls-9" d="M168.35,379.24c4.21,6.3,11.95,10.48,19.41,11.83a73.52,73.52,0,0,0,23-.07" transform="translate(-98.5 -82)"/><path class="cls-9" d="M251.19,531.13c13.82-8.28,4.86-28.05-9.5-28.53-12.08-.4-22.26,3-23.48,16.45-1.14,12.5,11.76,17.36,22.22,15.9A29.39,29.39,0,0,0,251.19,531.13Z" transform="translate(-98.5 -82)"/><path class="cls-9" d="M224.8,506.33c21.28-12.69,46.1-27.79,70-34.42" transform="translate(-98.5 -82)"/><path class="cls-9" d="M258.07,519.75c9.69-4.86,21.81-10,31.75-14.29" transform="translate(-98.5 -82)"/><path class="cls-9" d="M222.23,530.18c15.12,13.79,29.49,25.79,45,34.07" transform="translate(-98.5 -82)"/><path class="cls-9" d="M258.07,522.13c1.74,1,4.59,3.18,6.25,4.32,6.59,4.52,13.7,9.87,20.29,14.39" transform="translate(-98.5 -82)"/><path class="cls-9" d="M281.34,565.08a77.88,77.88,0,0,1,25.57-3.47,52.41,52.41,0,0,0,2.23-13.74,4,4,0,0,0-.4-2.26,3.87,3.87,0,0,0-1.37-1.17,29.51,29.51,0,0,0-21.91-3.28C272,544.48,264.84,554.4,267.88,568c1.8,8.05,7.12,15.87,13.78,17.51" transform="translate(-98.5 -82)"/><path class="cls-9" d="M294.78,471.9c-3.1,21.34-6.59,44.38-9.69,65.72l-.55,3.79" transform="translate(-98.5 -82)"/><path class="cls-9" d="M315,522.13c-2.75,23.2-4,49.3-2.25,72.6" transform="translate(-98.5 -82)"/><path class="cls-9" d="M315,522.13c56.86,1.75,113.12,1.75,170,0" transform="translate(-98.5 -82)"/><path class="cls-9" d="M312.76,594.72c27.93,8.88,57.81,10.29,86.91,9.57s59.42-.62,87.58-9.57" transform="translate(-98.5 -82)"/><path class="cls-9" d="M475.91,668.06q.06,1.39.06,2.8c0,40.58-34.76,73.47-77.64,73.47s-77.64-32.89-77.64-73.47q0-1.8.09-3.57" transform="translate(-98.5 -82)"/><path class="cls-9" d="M170.31,289.64c-1.6,29.87-6.81,62.36-2,89.6" transform="translate(-98.5 -82)"/><path class="cls-9" d="M137.7,293.89a170.13,170.13,0,0,0-3.15,55.18" transform="translate(-98.5 -82)"/><path class="cls-9" d="M427.67,192.09c-1.73-14-11.25-26.7-27.67-27.21-16.42.51-25.94,13.19-27.67,27.21" transform="translate(-98.5 -82)"/><path class="cls-9" d="M575.29,278.94c17.82-3.9,39.68-.09,54.4,10.7" transform="translate(-98.5 -82)"/><path class="cls-9" d="M629.69,289.64c3.37-3.51,9.17-5,14-5a28.41,28.41,0,0,1,10.82,1.8,13.84,13.84,0,0,1,7.76,7.43" transform="translate(-98.5 -82)"/><path class="cls-9" d="M662.3,293.89c14.83-11.76,28.09-3.21,36.7,6.45" transform="translate(-98.5 -82)"/><path class="cls-9" d="M699,300.34a54.78,54.78,0,0,1-5.26,18.19c-6.22,11.65-16.54,24.52-28.29,30.54" transform="translate(-98.5 -82)"/><path class="cls-9" d="M665.45,349.07c-2.53,16.16-17.45,29.49-33.8,30.17" transform="translate(-98.5 -82)"/><path class="cls-9" d="M631.65,379.24c-4.21,6.3-11.95,10.48-19.41,11.83a73.52,73.52,0,0,1-23-.07" transform="translate(-98.5 -82)"/><path class="cls-9" d="M480.4,441.69c25.74-7.68,51-23.85,67.15-45.35.38-39-6.42-80.11-16.34-117.86a434.49,434.49,0,0,0-42.58-14.2,340.62,340.62,0,0,0-107.92-12.46c-38.53,1.87-76.19,12.62-111.92,26.66-9.93,37.75-16.72,78.83-16.34,117.86,16.12,21.49,41.41,37.67,67.15,45.35C370.24,456.8,429.83,456.78,480.4,441.69Z" transform="translate(-98.5 -82)"/><path class="cls-9" d="M548.81,531.13c-13.82-8.28-4.86-28.05,9.5-28.53,12.08-.4,22.26,3,23.48,16.45,1.14,12.5-11.76,17.36-22.22,15.9A29.39,29.39,0,0,1,548.81,531.13Z" transform="translate(-98.5 -82)"/><path class="cls-9" d="M575.2,506.33c-21.28-12.69-46.1-27.79-70-34.42" transform="translate(-98.5 -82)"/><path class="cls-9" d="M541.93,519.75c-9.69-4.86-21.81-10-31.75-14.29" transform="translate(-98.5 -82)"/><path class="cls-9" d="M577.77,530.18c-15.12,13.79-29.49,25.79-45,34.07" transform="translate(-98.5 -82)"/><path class="cls-9" d="M541.93,522.13c-1.74,1-4.59,3.18-6.25,4.32-6.59,4.52-13.7,9.87-20.29,14.39" transform="translate(-98.5 -82)"/><path class="cls-9" d="M518.66,565.08a77.88,77.88,0,0,0-25.57-3.47,52.41,52.41,0,0,1-2.23-13.74,4,4,0,0,1,.4-2.26,3.87,3.87,0,0,1,1.37-1.17,29.51,29.51,0,0,1,21.91-3.28C528,544.48,535.16,554.4,532.12,568c-1.8,8.05-7.12,15.87-13.78,17.51" transform="translate(-98.5 -82)"/><path class="cls-9" d="M518.22,565.08a126.5,126.5,0,0,1-.73,28c-4.77,31.71-24.42,47.57-54.68,53.64A284.33,284.33,0,0,1,400,652.08a284.33,284.33,0,0,1-62.82-5.37c-30.25-6.07-49.91-21.93-54.68-53.64a126.5,126.5,0,0,1-.73-28" transform="translate(-98.5 -82)"/><path class="cls-9" d="M505.22,471.9c3.1,21.34,6.59,44.38,9.69,65.72l.55,3.79" transform="translate(-98.5 -82)"/><path class="cls-9" d="M485,522.13c2.75,23.2,4,49.3,2.25,72.6" transform="translate(-98.5 -82)"/><path class="cls-9" d="M485.18,639.41c1,9,1.62,17.81-.93,26.5-37.6,11-78,10.1-116.6,8-17.47-.95-35.06-3.09-51.9-8-2.55-8.69-2-17.51-.93-26.5" transform="translate(-98.5 -82)"/><path class="cls-9" d="M629.69,289.64c1.6,29.87,6.81,62.36,2,89.6" transform="translate(-98.5 -82)"/><path class="cls-9" d="M662.3,293.89a170.13,170.13,0,0,1,3.15,55.18" transform="translate(-98.5 -82)"/><rect class="cls-10" x="203.15" y="229" width="17.34" height="41.22" rx="8.67" ry="8.67"/><path class="cls-9" d="M297.32,316l4.34,2.45" transform="translate(-98.5 -82)"/><path class="cls-9" d="M296.32,321.92a27.4,27.4,0,0,0,5.34,1.29" transform="translate(-98.5 -82)"/><rect class="cls-10" x="486.1" y="311" width="17.34" height="41.22" rx="8.67" ry="8.67" transform="translate(891.05 581.22) rotate(-180)"/><path class="cls-9" d="M507.79,316l-4.34,2.45" transform="translate(-98.5 -82)"/><path class="cls-9" d="M508.78,321.92a27.4,27.4,0,0,1-5.34,1.29" transform="translate(-98.5 -82)"/><path class="cls-9" d="M368.08,402.36q46.51-.06,92.86-4.68L461,378a4.16,4.16,0,0,0-.7-2.86c-.86-1-2.36-.9-3.64-.77a1094.14,1094.14,0,0,1-113.19,5.27,1.95,1.95,0,0,0-2.49,2.29l0,15.39a3.08,3.08,0,0,0,.63,2.29C345.45,403.26,363.27,402.36,368.08,402.36Z" transform="translate(-98.5 -82)"/><path class="cls-9" d="M460.85,503.51c-7.09,1.07-7.14,11.07.26,11.16,4.54.05,7.06-4.51,5.36-8.68C465.59,503.82,463.26,503.15,460.85,503.51Z" transform="translate(-98.5 -82)"/><path class="cls-9" d="M438.24,503.51c-7.09,1.07-7.14,11.07.26,11.16,4.54.05,7.06-4.51,5.36-8.68C443,503.82,440.65,503.15,438.24,503.51Z" transform="translate(-98.5 -82)"/><path class="cls-9" d="M360.29,503.51c-7.09,1.07-7.14,11.07.26,11.16,4.54.05,7.06-4.51,5.36-8.68C365,503.82,362.69,503.15,360.29,503.51Z" transform="translate(-98.5 -82)"/><path class="cls-9" d="M337.68,503.51c-7.09,1.07-7.14,11.07.26,11.16,4.54.05,7.06-4.51,5.36-8.68C342.41,503.82,340.08,503.15,337.68,503.51Z" transform="translate(-98.5 -82)"/><path class="cls-8" d="M341.67,391.77l44.14-.48a2.66,2.66,0,0,0,3.28-2.14l2-6.1a62.89,62.89,0,0,0,2.74,12A62.37,62.37,0,0,1,398,382.86a26.51,26.51,0,0,0,4.49,10.93,74.56,74.56,0,0,1,5-14.4,173.52,173.52,0,0,0,2.77,17.53l3-10.91a277.41,277.41,0,0,0,47.08-1.7" transform="translate(-98.5 -82)"/><circle class="cls-9" cx="251.49" cy="480.25" r="29.35"/><circle class="cls-9" cx="352.17" cy="480.25" r="29.35"/><circle class="cls-11" cx="352.17" cy="480.25" r="21.91"/><circle class="cls-11" cx="352.17" cy="480.25" r="12.96"/><circle class="cls-12" cx="352.17" cy="480.25" r="5.94"/><circle class="cls-11" cx="251.49" cy="480.25" r="21.91"/><circle class="cls-11" cx="251.49" cy="480.25" r="12.96"/><circle class="cls-12" cx="251.49" cy="480.25" r="5.94"/><g class="cls-13"><line class="cls-14" x1="301.5" y1="33" x2="301.5" y2="82.88"/></g><circle class="cls-9" cx="301.15" cy="23.5" r="7.55"/><path class="cls-9" d="M224,745c9.44,0,19.35.68,28-1.5,1.86-.47,3.94-1.41,6-1.52s4,0,6,0c4.08,0,8.62.54,12.5-.5,4.2-1.13,8.82.44,13-.46,2-.43,3.14-1.05,5.46-1,2,0,4,0,6,0,2.17,0,4.33,0,6.5,0s3.86.81,6,1a36.76,36.76,0,0,1,6.55.93c1.39.4,2.51,1.65,3.9,2.06,4.52,1.32,9.45,1.22,14,2.47a22.72,22.72,0,0,0,12-.1c7-2.06,13.72-1,21-1.38,2.14-.12,3.78-1,6-1s4.67,0,7,0h14.54c4.22,0,8.78-.52,13,0,2.26.26,4.27,1.66,6.5,2.09,2.85.55,6.3-.05,9.22-.05,3.7,0,7.48.25,11.16,0,1.72-.1,3.31-.74,5-1,2-.25,4,.19,6,0,1.19-.14,2-.71,3.16-1,1.34-.28,2.69.08,4-.17,3.65-.67,7.22-1.08,10.89-1.92,6.53-1.49,13.31-2.22,19.7-3.78,3.13-.77,7-.22,10.18-.22h9.55c3.52,0,7.65-.62,11.07.23,3,.74,5.91,2,9,2.65,4.31.95,8.84,2,13.27,2.15,5.05.12,10.13-.25,15.18-.06,4.56.17,9.15,1.71,13.58,2.76,2.41.57,4.44,1.74,6.75,2.57a15.92,15.92,0,0,0,6.22.7" transform="translate(-98.5 -82)"/><circle class="cls-5" cx="399.63" cy="239.48" r="3.75"/><circle class="cls-5" cx="216.75" cy="239.48" r="3.75"/></g></svg>