<?xml version="1.0" encoding="UTF-8"?>
<svg width="374px" height="73px" viewBox="0 0 374 73" version="1.1" xmlns="http://www.w3.org/2000/svg" xmlns:xlink="http://www.w3.org/1999/xlink">
    <!-- Generator: Sketch 42 (36781) - http://www.bohemiancoding.com/sketch -->
    <title>4</title>
    <desc>Created with Sketch.</desc>
    <defs>
        <rect id="path-1" x="242" y="0" width="132" height="73"></rect>
        <mask id="mask-2" maskContentUnits="userSpaceOnUse" maskUnits="objectBoundingBox" x="0" y="0" width="132" height="73" fill="white">
            <use xlink:href="#path-1"></use>
        </mask>
    </defs>
    <g id="Page-1" stroke="none" stroke-width="1" fill="none" fill-rule="evenodd">
        <g id="Artboard" transform="translate(-53.000000, -29.000000)">
            <g id="4" transform="translate(53.000000, 29.000000)">
                <use id="Rectangle" stroke="#000000" mask="url(#mask-2)" stroke-width="2" fill="#FFFFFF" xlink:href="#path-1"></use>
                <path d="M28.15,22.7 L28.15,51 L26.37,51 L26.37,26.88 C26.37,26.5333316 26.3899998,26.1666686 26.43,25.78 L15.29,45.56 C15.1033324,45.9066684 14.8366684,46.08 14.49,46.08 L14.17,46.08 C13.8233316,46.08 13.5566676,45.9066684 13.37,45.56 L1.93,25.74 C1.9700002,26.140002 1.99,26.5199982 1.99,26.88 L1.99,51 L0.19,51 L0.19,22.7 L1.61,22.7 C1.7966676,22.7 1.9433328,22.7199998 2.05,22.76 C2.1566672,22.8000002 2.2633328,22.9066658 2.37,23.08 L13.79,42.76 C13.990001,43.1333352 14.1633326,43.5333312 14.31,43.96 C14.3900004,43.7466656 14.4766662,43.5366677 14.57,43.33 C14.6633338,43.1233323 14.7633328,42.9266676 14.87,42.74 L25.97,23.08 C26.0766672,22.9066658 26.1866661,22.8000002 26.3,22.76 C26.4133339,22.7199998 26.5633324,22.7 26.75,22.7 L28.15,22.7 Z M59.77,40.72 L54.01,26.42 C53.809999,25.953331 53.6166676,25.3933366 53.43,24.74 C53.3499996,25.0600016 53.2633338,25.3633319 53.17,25.65 C53.0766662,25.9366681 52.9766672,26.1999988 52.87,26.44 L47.11,40.72 L59.77,40.72 Z M66.03,51 L64.45,51 C64.2633324,51 64.1100006,50.9500005 63.99,50.85 C63.8699994,50.7499995 63.776667,50.6200008 63.71,50.46 L60.39,42.24 L46.49,42.24 L43.17,50.46 C43.1166664,50.6066674 43.023334,50.7333328 42.89,50.84 C42.756666,50.9466672 42.5966676,51 42.41,51 L40.85,51 L52.43,22.7 L54.45,22.7 L66.03,51 Z M98.53,46.24 C98.663334,46.24 98.7766662,46.2866662 98.87,46.38 L99.67,47.24 C99.0833304,47.8666698 98.4466701,48.4299975 97.76,48.93 C97.0733299,49.4300025 96.3200041,49.8566649 95.5,50.21 C94.6799959,50.5633351 93.7800049,50.8366657 92.8,51.03 C91.8199951,51.2233343 90.7433392,51.32 89.57,51.32 C87.6099902,51.32 85.8133415,50.9766701 84.18,50.29 C82.5466585,49.6033299 81.1433392,48.6300063 79.97,47.37 C78.7966608,46.1099937 77.8866699,44.5866756 77.24,42.8 C76.5933301,41.0133244 76.27,39.0266776 76.27,36.84 C76.27,34.6933226 76.60333,32.7333422 77.27,30.96 C77.93667,29.1866578 78.869994,27.6633397 80.07,26.39 C81.270006,25.1166603 82.7099916,24.1300035 84.39,23.43 C86.0700084,22.7299965 87.9233232,22.38 89.95,22.38 C91.883343,22.38 93.5966592,22.679997 95.09,23.28 C96.5833408,23.880003 97.9433272,24.7266612 99.17,25.82 L98.55,26.72 C98.4433328,26.8800008 98.2766678,26.96 98.05,26.96 C97.8899992,26.96 97.6300018,26.8133348 97.27,26.52 C96.9099982,26.2266652 96.4100032,25.9033351 95.77,25.55 C95.1299968,25.1966649 94.3333381,24.8733348 93.38,24.58 C92.4266619,24.2866652 91.28334,24.14 89.95,24.14 C88.2433248,24.14 86.6800071,24.4333304 85.26,25.02 C83.8399929,25.6066696 82.6200051,26.4466612 81.6,27.54 C80.5799949,28.6333388 79.7833362,29.9666588 79.21,31.54 C78.6366638,33.1133412 78.35,34.8799902 78.35,36.84 C78.35,38.84001 78.6399971,40.6266588 79.22,42.2 C79.8000029,43.7733412 80.5966616,45.1033279 81.61,46.19 C82.6233384,47.2766721 83.8199931,48.1099971 85.2,48.69 C86.5800069,49.2700029 88.069992,49.56 89.67,49.56 C90.6833384,49.56 91.5866627,49.493334 92.38,49.36 C93.1733373,49.226666 93.90333,49.026668 94.57,48.76 C95.23667,48.493332 95.8566638,48.1666686 96.43,47.78 C97.0033362,47.3933314 97.5699972,46.9400026 98.13,46.42 C98.196667,46.3666664 98.263333,46.3233335 98.33,46.29 C98.396667,46.2566665 98.463333,46.24 98.53,46.24 Z M134.99,22.7 L134.99,51 L132.93,51 L132.93,37.44 L115.21,37.44 L115.21,51 L113.15,51 L113.15,22.7 L115.21,22.7 L115.21,35.9 L132.93,35.9 L132.93,22.7 L134.99,22.7 Z M153.41,51 L151.35,51 L151.35,22.7 L153.41,22.7 L153.41,51 Z M191.61,22.7 L191.61,51 L190.65,51 C190.476666,51 190.333334,50.9700003 190.22,50.91 C190.106666,50.8499997 189.996667,50.7466674 189.89,50.6 L171.51,26.04 C171.55,26.440002 171.57,26.8199982 171.57,27.18 L171.57,51 L169.77,51 L169.77,22.7 L170.79,22.7 C170.976668,22.7 171.12,22.7233331 171.22,22.77 C171.32,22.8166669 171.429999,22.9199992 171.55,23.08 L189.89,47.58 C189.85,47.179998 189.83,46.8000018 189.83,46.44 L189.83,22.7 L191.61,22.7 Z M224.97,49.3 L224.93,51 L207.97,51 L207.97,22.7 L224.93,22.7 L224.93,24.4 L210.03,24.4 L210.03,35.84 L222.43,35.84 L222.43,37.5 L210.03,37.5 L210.03,49.3 L224.97,49.3 Z" id="MACHINE" fill="#000000"></path>
                <path d="M271.48,49.36 C273.960012,49.36 275.83666,48.8233387 277.11,47.75 C278.38334,46.6766613 279.02,45.1666764 279.02,43.22 C279.02,42.3266622 278.850002,41.5233369 278.51,40.81 C278.169998,40.0966631 277.680003,39.4900025 277.04,38.99 C276.399997,38.4899975 275.613338,38.106668 274.68,37.84 C273.746662,37.573332 272.686673,37.44 271.5,37.44 L264.38,37.44 L264.38,49.36 L271.48,49.36 Z M264.38,24.32 L264.38,35.94 L270.5,35.94 C271.806673,35.94 272.923329,35.773335 273.85,35.44 C274.776671,35.106665 275.536664,34.6666694 276.13,34.12 C276.723336,33.5733306 277.159999,32.9533368 277.44,32.26 C277.720001,31.5666632 277.86,30.853337 277.86,30.12 C277.86,28.2133238 277.256673,26.7700049 276.05,25.79 C274.843327,24.8099951 272.980013,24.32 270.46,24.32 L264.38,24.32 Z M270.46,22.7 C272.073341,22.7 273.473327,22.8599984 274.66,23.18 C275.846673,23.5000016 276.826663,23.9699969 277.6,24.59 C278.373337,25.2100031 278.946665,25.9666622 279.32,26.86 C279.693335,27.7533378 279.88,28.766661 279.88,29.9 C279.88,30.6466704 279.750001,31.3666632 279.49,32.06 C279.229999,32.7533368 278.856669,33.3933304 278.37,33.98 C277.883331,34.5666696 277.283337,35.0766645 276.57,35.51 C275.856663,35.9433355 275.040005,36.2733322 274.12,36.5 C276.346678,36.8200016 278.056661,37.5566609 279.25,38.71 C280.443339,39.8633391 281.04,41.3799906 281.04,43.26 C281.04,44.460006 280.826669,45.5399952 280.4,46.5 C279.973331,47.4600048 279.353337,48.27333 278.54,48.94 C277.726663,49.60667 276.726673,50.1166649 275.54,50.47 C274.353327,50.8233351 273.006674,51 271.5,51 L262.32,51 L262.32,22.7 L270.46,22.7 Z M320.74,36.84 C320.74,39.0266776 320.413337,41.0099911 319.76,42.79 C319.106663,44.5700089 318.186673,46.0899937 317,47.35 C315.813327,48.6100063 314.390008,49.5833299 312.73,50.27 C311.069992,50.9566701 309.24001,51.3 307.24,51.3 C305.23999,51.3 303.413342,50.9566701 301.76,50.27 C300.106658,49.5833299 298.686673,48.6100063 297.5,47.35 C296.313327,46.0899937 295.393337,44.5700089 294.74,42.79 C294.086663,41.0099911 293.76,39.0266776 293.76,36.84 C293.76,34.6666558 294.086663,32.6900089 294.74,30.91 C295.393337,29.1299911 296.313327,27.6100063 297.5,26.35 C298.686673,25.0899937 300.106658,24.1133368 301.76,23.42 C303.413342,22.7266632 305.23999,22.38 307.24,22.38 C309.24001,22.38 311.069992,22.7233299 312.73,23.41 C314.390008,24.0966701 315.813327,25.073327 317,26.34 C318.186673,27.606673 319.106663,29.1299911 319.76,30.91 C320.413337,32.6900089 320.74,34.6666558 320.74,36.84 Z M318.62,36.84 C318.62,34.8666568 318.346669,33.0933412 317.8,31.52 C317.253331,29.9466588 316.480005,28.6133388 315.48,27.52 C314.479995,26.4266612 313.280007,25.5900029 311.88,25.01 C310.479993,24.4299971 308.933342,24.14 307.24,24.14 C305.559992,24.14 304.020007,24.4299971 302.62,25.01 C301.219993,25.5900029 300.016672,26.4266612 299.01,27.52 C298.003328,28.6133388 297.223336,29.9466588 296.67,31.52 C296.116664,33.0933412 295.84,34.8666568 295.84,36.84 C295.84,38.8266766 296.116664,40.6033255 296.67,42.17 C297.223336,43.7366745 298.003328,45.0666612 299.01,46.16 C300.016672,47.2533388 301.219993,48.0866638 302.62,48.66 C304.020007,49.2333362 305.559992,49.52 307.24,49.52 C308.933342,49.52 310.479993,49.2333362 311.88,48.66 C313.280007,48.0866638 314.479995,47.2533388 315.48,46.16 C316.480005,45.0666612 317.253331,43.7366745 317.8,42.17 C318.346669,40.6033255 318.62,38.8266766 318.62,36.84 Z M354.02,51 L352,51 C351.813332,51 351.666667,50.9433339 351.56,50.83 C351.453333,50.7166661 351.366667,50.6066672 351.3,50.5 L342.38,37.44 C342.326666,37.640001 342.233334,37.839999 342.1,38.04 L333.34,50.5 C333.246666,50.6200006 333.150001,50.7333328 333.05,50.84 C332.949999,50.9466672 332.820001,51 332.66,51 L330.74,51 L340.98,36.48 L331.2,22.7 L333.22,22.7 C333.406668,22.7 333.543333,22.7399996 333.63,22.82 C333.716667,22.9000004 333.793333,22.9933328 333.86,23.1 L342.46,35.48 C342.54,35.279999 342.639999,35.080001 342.76,34.88 L351.06,23.12 C351.126667,22.9999994 351.209999,22.9000004 351.31,22.82 C351.410001,22.7399996 351.526666,22.7 351.66,22.7 L353.62,22.7 L343.84,36.36 L354.02,51 Z" id="BOX" fill="#000000"></path>
            </g>
        </g>
    </g>
</svg>